# xmcd
#
# Track frame offsets:
#	150
#	15943
#	33284
#	52422
#	71038
#	89191
#	103477
#	117741
#	132029
#	148297
#	159302
#	172855
#
# Disc length: 2443 seconds
#
# Revision: 2
# Processed by: cddbd v1.5.2PL0 Copyright (c) Steve Scherf et al.
# Submitted via: EasyCDDAExtractor 11.9.9.666
#
DISCID=b109890c
DTITLE=Os Mateadores - Depois da Lida
DYEAR=2003
DGENRE=Folklore
TTITLE0=Habanera
TTITLE1=Pedaços de Tempo
TTITLE2=O Potro da Estância Querência
TTITLE3=Depois da Lida
TTITLE4=NoTranco do Zaino
TTITLE5=A Dança do Bugio
TTITLE6=Fogo do Fole
TTITLE7=Ânsias Estradeiras
TTITLE8=Eu e Você
TTITLE9=Polvadeira
TTITLE10=Troveiro das Águas
TTITLE11=No embalo da Vaneira
EXTD=Ripped By MasterKluwz
EXTT0=Ripped By MasterKluwz
EXTT1=Ripped By MasterKluwz
EXTT2=Ripped By MasterKluwz
EXTT3=Ripped By MasterKluwz
EXTT4=Ripped By MasterKluwz
EXTT5=Ripped By MasterKluwz
EXTT6=Ripped By MasterKluwz
EXTT7=Ripped By MasterKluwz
EXTT8=Ripped By MasterKluwz
EXTT9=Ripped By MasterKluwz
EXTT10=Ripped By MasterKluwz
EXTT11=Ripped By MasterKluwz
PLAYORDER=
